<svg width="155" height="67" fill="none" xmlns="http://www.w3.org/2000/svg"><path d="M71.574 35.115h-.662c0-.06.06-.3.24-.778l2.89-7.119h5.176l2.709 6.7v.06c.06.12.06.18.12.24.241.538.241.777.241.837h-.662v1.136h5.538v-1.136h-.482c-.542 0-.963-.3-1.204-.898-.36-.777-.481-1.016-.481-1.136l-7.163-17.827h-.963L69.528 33.5c-.422.957-.663 1.197-.723 1.257-.18.12-.421.18-.722.18H67.6v1.136h3.853l.12-.957zm5.116-14.417l1.987 5.025h-3.973l1.986-5.025zm30.578 12.921c1.083-1.017 1.926-2.273 2.588-3.709.662-1.436.963-2.931.963-4.427 0-1.555-.301-2.99-.903-4.247a9.227 9.227 0 0 0-2.468-3.17c-1.023-.838-2.287-1.436-3.671-1.795-1.385-.359-3.251-.598-5.598-.598l-9.57-.06v1.137h.48c.663 0 .783.18.783.18s.18.298.18 1.674l-.06 14.357c0 1.196-.12 1.735-.18 1.914-.06.12-.12.3-.542.3h-.722v1.136l9.751.06c2.468 0 4.274-.18 5.478-.539a11.07 11.07 0 0 0 3.491-2.213zm-9.21 1.256c-1.264 0-2.347-.12-3.07-.299-.662-.18-1.143-.478-1.384-.837-.24-.36-.421-1.017-.421-1.855l.06-14.835h2.588c4.033 0 7.043.957 8.969 2.811 1.926 1.855 2.949 4.008 2.889 6.52 0 2.095-.722 4.128-2.167 5.923-1.444 1.675-3.912 2.572-7.464 2.572zm12.28.18c-.181.12-.422.18-.723.18h-.481v1.136h3.852v-1.137h-.662c0-.06.06-.299.241-.778l2.889-7.118h5.176l2.709 6.7v.06c.06.12.06.18.12.239.241.538.241.778.241.837h-.662v1.137h5.538v-1.137h-.482c-.541 0-.963-.299-1.204-.897-.361-.778-.481-1.017-.481-1.136l-7.163-17.827h-.963l-7.343 18.305c-.301 1.077-.542 1.376-.602 1.436zm7.764-14.178l1.987 5.025h-3.973l1.986-5.025zm36.537 14.537c-.542-.06-.662-.18-.662-.18-.061-.06-.181-.299-.301-1.196l-2.047-14.955c-.06-.36-.06-.658-.06-.838 0-.777.361-1.136 1.144-1.196h.421v-1.077h-3.913l-6.741 15.374-6.621-15.434h-4.514v1.137h.481c.241 0 .542.06.843.24.12.059.421.298.842 1.255l-2.287 15.673c-.06.3-.06.539-.12.718-.06.24-.121.3-.121.3s-.12.059-.602.059h-.481v1.137h3.973v-1.137h-.482c-.421 0-.421-.12-.421-.3 0-.238 0-.478.06-.717l1.806-12.921 6.5 15.134h.723l6.621-15.015 1.745 12.862c.061.478.061.658.061.718 0 .18 0 .239-.061.299-.06.06-.18.06-.361.06h-.481v1.136H155v-1.076l-.361-.06zM93.424 63.888c-.723.419-1.385.598-2.047.598-.843 0-1.745-.418-2.648-1.316l-1.746-1.735c.843-1.316 1.445-3.29 1.806-5.802.18-1.256.361-1.675.421-1.795 0-.06.06-.18.422-.12l.541.06v-1.256h-5.176v1.197l.903-.06h.18c.662.06.903.12 1.023.18.06.06.12.179.12.657 0 .718-.12 1.735-.36 3.111a8.727 8.727 0 0 1-.963 2.752l-8.367-8.256c-2.046-2.033-2.528-3.23-2.528-3.888 0-.478.18-.897.542-1.256.36-.359.842-.538 1.565-.538.842 0 1.745.239 2.588.777.903.539 1.745 1.197 2.408 2.034l.12.18h1.144l-1.144-3.051-.12-.06A12.879 12.879 0 0 0 80 45.344c-.722-.24-1.565-.36-2.468-.36-1.625 0-2.89.42-3.672 1.317-.782.837-1.204 1.854-1.204 2.931 0 .658.12 1.316.422 1.914.18.42.421.838.722 1.316-1.445.36-2.588 1.077-3.43 2.094-1.024 1.197-1.506 2.632-1.506 4.247 0 1.855.723 3.59 2.167 5.085 1.445 1.556 3.732 2.333 6.682 2.333 2.889 0 5.296-.778 7.223-2.453l.36.36v.06l.121.119c1.324 1.316 2.769 1.974 4.334 1.974 1.505 0 2.95-.419 4.213-1.316l.361-.24-.601-.956-.301.12zm-11.377 0c-.602.24-1.444.36-2.528.36-2.106 0-3.972-.779-5.658-2.274-1.625-1.496-2.468-3.11-2.468-4.786 0-1.735 1.144-2.93 3.431-3.47.241.24.542.599.963 1.077.903.958.963 1.017.963 1.017l7.163 6.94c-.662.478-1.324.897-1.866 1.136zm33.768-1.136c-.12.897-.301 1.196-.361 1.256-.181.18-.361.24-.542.299-.18.06-.662.12-2.046.12h-3.491a9.13 9.13 0 0 1-1.565-.12c-.121-.06-.362-.12-.482-.479-.12-.239-.241-.718-.241-1.794V56.41h5.779c.541 0 .662.06.722.06 0 0 .06.06.06.179l.06.359h1.084v-2.812h-1.144v.419c0 .12-.06.12-.06.12s-.181.06-.903.06h-5.598v-7.897h6.08c.842 0 1.023.12 1.023.12s.181.24.542 1.555l.12.36h1.023v-3.65l-13.422-.06v1.137h.481c.602 0 .783.12.783.18.06.119.12.478.12 1.315l-.06 15.913c0 .598-.121.777-.121.777-.12.06-.361.18-.842.18h-.422v1.076l14.507.06v-3.649h-1.084v.539zm19.863-15.613c.241-.42.422-.48.422-.48.18-.059.361-.059.542-.059h.481v-1.136h-3.912V46.6h.662c0 .06-.06.12-.06.24l-5.719 14.057-5.658-14.117c-.06-.12-.06-.18-.06-.3h.12l.482.06v-1.136h-5.538v1.136h.482c.241 0 .481.06.722.24.06.06.421.358 1.084 1.914l7.102 17.647h.903l7.584-18.664s.121-.24.361-.538zm16.493 16.988c-.361-.777-.482-1.016-.482-1.136l-7.162-17.827h-.964L136.22 63.47c-.421.958-.662 1.197-.722 1.257-.181.12-.422.18-.723.18h-.481v1.136h3.852v-1.137h-.662c0-.06.06-.299.241-.778l2.889-7.118h5.177l2.708 6.7v.06c.06.12.06.179.121.239.24.538.24.778.24.837h-.662v1.137h5.538v-1.137h-.482c-.361.18-.782-.12-1.083-.718zm-10.895-8.554l1.987-4.965 1.986 5.025-3.973-.06zM28.356 21.117c.301.12 2.287.299 2.287.299s-3.01-11.127 3.672-19.203c.241-.299.361-.658.301-1.017-.06-.359-.24-.717-.481-.897C33.834.06 33.472 0 33.11 0c-.36.06-.722.24-.902.479-3.01 3.708-4.334 7.537-4.816 10.887-.963-1.735-2.167-3.41-3.732-4.905C17.401.538 8.252 0 8.252 0s.903 9.093 7.042 15.015c4.274 4.068 9.571 4.905 13.062 6.102zM21.314 8.794c2.708 2.572 4.213 5.922 5.056 8.554-2.709-.718-6.14-2.154-8.848-4.666-2.709-2.572-4.214-5.922-5.056-8.554 2.708.717 6.14 2.093 8.848 4.666zm22.09 13.758c-5.959 0-11.075 3.47-13.784 8.555-2.708-5.085-7.885-8.555-13.784-8.555-8.727 0-16.07 7.478-15.83 16.69.12 5.025 4.936 15.912 13.483 24.945 4.093 4.307 11.196 2.393 14.506 1.496C23.962 62.81 13.97 55.274 13.97 51.685c0-4.487 3.672-8.196 8.187-8.196a8.21 8.21 0 0 1 7.463 4.726c1.325-2.752 4.154-4.726 7.404-4.726 4.514 0 8.246 3.65 8.246 8.196 0 3.649-10.052 11.186-14.085 13.998 3.13.897 10.474 2.811 14.808-1.556 8.487-8.673 13.242-18.903 13.242-24.945-.06-9.152-7.103-16.63-15.83-16.63z" fill="#C09465"/></svg>