<svg width="126" height="55" fill="none" xmlns="http://www.w3.org/2000/svg"><path d="M57.588 28.796h-.543c0-.05.05-.246.197-.638l2.37-5.838h4.244l2.222 5.495v.049c.049.098.049.147.098.196.198.441.198.638.198.687h-.543v.932h4.54v-.932h-.394c-.444 0-.79-.246-.987-.736-.296-.638-.395-.834-.395-.932L62.721 12.46h-.79L55.91 27.471c-.346.785-.543.981-.593 1.03-.148.098-.345.147-.592.147h-.395v.933h3.16l.098-.785zm4.195-11.822l1.63 4.12h-3.258l1.628-4.12zm25.075 10.595c.888-.834 1.58-1.864 2.122-3.042a8.603 8.603 0 0 0 .79-3.63c0-1.275-.247-2.452-.74-3.483a7.57 7.57 0 0 0-2.024-2.6c-.84-.686-1.876-1.177-3.011-1.471-1.135-.294-2.665-.49-4.59-.49l-7.849-.05v.932h.395c.543 0 .642.147.642.147s.148.246.148 1.374l-.05 11.773c0 .981-.098 1.423-.147 1.57-.05.098-.1.245-.445.245h-.592v.932l7.996.05c2.024 0 3.505-.148 4.492-.442a9.066 9.066 0 0 0 2.863-1.815zm-7.552 1.03c-1.037 0-1.925-.098-2.517-.245-.543-.148-.938-.393-1.136-.687-.197-.295-.345-.834-.345-1.52l.05-12.166h2.122c3.307 0 5.775.784 7.354 2.305 1.58 1.52 2.419 3.287 2.37 5.347 0 1.717-.593 3.385-1.778 4.857-1.184 1.373-3.208 2.109-6.12 2.109zm10.069.148c-.148.098-.345.147-.592.147h-.395v.932h3.16v-.932h-.544c0-.05.05-.245.198-.638l2.369-5.837h4.245l2.221 5.494v.049c.049.098.049.147.099.196.197.441.197.638.197.687h-.543v.932h4.541v-.932h-.395c-.444 0-.789-.245-.987-.736-.296-.638-.395-.834-.395-.932l-5.873-14.618h-.79l-6.022 15.01c-.247.883-.444 1.129-.494 1.178zm6.368-11.626l1.629 4.12h-3.258l1.629-4.12zm29.961 11.919c-.444-.048-.543-.146-.543-.146-.049-.05-.148-.246-.247-.982l-1.678-12.263c-.049-.295-.049-.54-.049-.687 0-.638.296-.932.937-.981h.346v-.883h-3.208l-5.529 12.607-5.429-12.656h-3.702v.932h.395c.197 0 .444.049.691.196.098.05.345.245.691 1.03l-1.876 12.853c-.049.245-.049.441-.099.588-.049.197-.098.245-.098.245s-.099.05-.494.05h-.395v.932h3.258v-.932h-.395c-.345 0-.345-.099-.345-.246 0-.196 0-.392.049-.588l1.481-10.596 5.331 12.41h.592l5.429-12.312 1.432 10.547c.049.392.049.54.049.588 0 .148 0 .197-.049.246-.05.049-.148.049-.296.049h-.395v.932H126v-.883l-.296-.05zM75.505 52.39c-.592.344-1.135.491-1.678.491-.691 0-1.431-.343-2.172-1.08l-1.431-1.422c.69-1.079 1.184-2.698 1.48-4.758.149-1.03.297-1.374.346-1.472 0-.049.05-.147.346-.098l.444.05v-1.03h-4.245v.98l.74-.049h.148c.543.05.74.098.84.147.049.05.098.147.098.54 0 .589-.099 1.422-.296 2.55a7.157 7.157 0 0 1-.79 2.257l-6.86-6.77c-1.679-1.667-2.074-2.648-2.074-3.188 0-.392.148-.736.444-1.03.297-.294.691-.442 1.284-.442.69 0 1.431.197 2.122.638.74.442 1.432.981 1.975 1.668l.098.147h.938l-.938-2.502-.098-.049a10.574 10.574 0 0 0-1.728-.785c-.592-.196-1.283-.294-2.024-.294-1.332 0-2.369.343-3.01 1.08-.642.686-.988 1.52-.988 2.403 0 .54.099 1.08.346 1.57.148.343.345.687.592 1.079-1.185.294-2.122.883-2.813 1.717-.84.981-1.234 2.158-1.234 3.483 0 1.52.592 2.943 1.777 4.17 1.184 1.275 3.06 1.913 5.478 1.913 2.37 0 4.344-.638 5.924-2.012l.296.295v.049l.098.098c1.086 1.08 2.271 1.619 3.554 1.619 1.234 0 2.419-.344 3.456-1.08l.296-.196-.494-.785-.247.099zm-9.329 0c-.493.197-1.184.295-2.073.295-1.727 0-3.257-.638-4.64-1.864-1.332-1.227-2.023-2.551-2.023-3.925 0-1.422.938-2.403 2.813-2.845.198.196.444.49.79.883.74.785.79.834.79.834l5.873 5.69c-.543.393-1.085.736-1.53.933zm27.691-.932c-.099.736-.247.981-.296 1.03-.148.147-.296.196-.444.245-.148.05-.543.099-1.679.099h-2.862c-.593 0-.988-.05-1.284-.099-.099-.049-.296-.098-.395-.392-.098-.196-.197-.589-.197-1.472v-4.61h4.738c.445 0 .543.048.593.048 0 0 .05.05.05.147l.048.295h.889v-2.306h-.938v.344c0 .098-.05.098-.05.098s-.147.049-.74.049h-4.59v-6.475h4.985c.691 0 .84.098.84.098s.147.196.444 1.275l.098.294h.84v-2.992l-11.008-.049v.932h.395c.494 0 .642.098.642.147.05.098.099.393.099 1.08l-.05 13.048c0 .49-.099.638-.099.638-.098.049-.296.147-.69.147h-.346v.883l11.895.049v-2.992h-.888v.441zm16.289-12.803c.197-.343.345-.392.345-.392.148-.05.296-.05.444-.05h.395v-.931h-3.208v.932h.543c0 .049-.05.098-.05.196l-4.689 11.528-4.64-11.577c-.049-.098-.049-.147-.049-.246h.099l.395.05v-.933H95.2v.932h.395c.197 0 .395.05.592.197.05.049.345.294.888 1.57L102.9 54.4h.74l6.219-15.305s.099-.196.297-.441zm13.524 13.932c-.296-.638-.395-.834-.395-.932l-5.874-14.618h-.789l-6.022 15.01c-.346.785-.543.982-.592 1.03-.149.099-.346.148-.593.148h-.395v.932h3.159v-.932h-.543c0-.05.05-.246.198-.638l2.369-5.838h4.245l2.221 5.495v.049c.05.098.05.147.099.196.197.441.197.638.197.687h-.543v.932h4.541v-.932h-.394c-.297.147-.642-.099-.889-.589zm-8.934-7.015l1.629-4.071 1.629 4.12-3.258-.049zM22.148 17.316c.247.098 1.875.246 1.875.246s-2.468-9.125 3.011-15.747c.198-.245.297-.54.247-.834-.05-.294-.197-.589-.395-.736C26.64.05 26.343 0 26.047 0c-.296.05-.592.196-.74.392-2.468 3.042-3.554 6.181-3.949 8.928-.79-1.422-1.777-2.796-3.06-4.022C13.164.44 5.662 0 5.662 0s.74 7.456 5.775 12.313c3.504 3.335 7.848 4.022 10.71 5.003zM16.373 7.211c2.22 2.11 3.455 4.857 4.146 7.015-2.221-.589-5.035-1.766-7.256-3.826-2.221-2.11-3.455-4.857-4.146-7.015 2.221.588 5.035 1.717 7.256 3.826zm19.22 11.282c-4.887 0-9.082 2.845-11.303 7.015-2.222-4.17-6.466-7.015-11.304-7.015C5.83 18.493-.193 24.625.005 32.18.103 36.3 4.052 45.228 11.06 52.635c3.357 3.532 9.181 1.962 11.896 1.227-3.307-2.355-11.5-8.536-11.5-11.48 0-3.678 3.01-6.72 6.712-6.72a6.732 6.732 0 0 1 6.12 3.876c1.086-2.257 3.406-3.876 6.072-3.876 3.702 0 6.762 2.993 6.762 6.72 0 2.993-8.243 9.174-11.55 11.48 2.567.735 8.588 2.305 12.142-1.276 6.96-7.113 10.86-15.501 10.86-20.456-.05-7.505-5.825-13.637-12.982-13.637z" fill="#fff"/></svg>